<svg width="600" height="600" viewBox="0 0 600 600" fill="none" xmlns="http://www.w3.org/2000/svg">
<path d="M335.64 487.56C335.64 487.56 337.32 471.72 337.17 471.69L342.27 472.92L351.06 388.92L324.42 351.81L319.8 396.99C319.514 401.454 318.187 405.789 315.926 409.649C313.666 413.509 310.533 416.787 306.78 419.22C302.832 421.846 298.275 423.412 293.547 423.77C288.819 424.127 284.078 423.263 279.78 421.26L196.29 383.04L194.67 389.04L180 382.29L184.5 367.86C179.842 365.463 174.89 363.687 169.77 362.58C197.13 492.63 201.42 513.75 202.35 516.99C202.62 517.86 202.74 517.8 202.89 517.8L343.89 513.54C344.015 513.511 344.127 513.44 344.207 513.339C344.287 513.238 344.33 513.114 344.33 512.985C344.33 512.856 344.287 512.732 344.207 512.631C344.127 512.53 344.015 512.459 343.89 512.43L346.41 490.14L335.64 487.56Z" fill="#005B96"/>
<path d="M124.11 145.83C124.59 148.2 127.65 163.2 132.03 184.83C165.03 187.38 237.03 192.78 270.21 194.64C270.57 194.64 275.73 193.98 278.01 193.77C282.63 193.32 285.81 193.08 287.01 192.84C296.85 190.95 294.9 178.89 294.9 178.89C292.74 170.52 274.83 156.57 274.83 156.57C267.93 149.58 276.93 148.26 276.93 148.26C276.548 147.58 276.369 146.805 276.414 146.027C276.459 145.248 276.727 144.499 277.184 143.867C277.642 143.236 278.271 142.749 278.997 142.464C279.723 142.179 280.515 142.109 281.28 142.26C281.79 142.5 282.6 141.33 283.08 140.55L124.65 145.17C124.568 145.168 124.486 145.185 124.411 145.219C124.337 145.253 124.271 145.304 124.219 145.368C124.166 145.432 124.13 145.506 124.111 145.586C124.092 145.666 124.092 145.75 124.11 145.83Z" fill="#005B96"/>
<path d="M345 274.71C388.5 351.63 384.27 343.71 384.78 346.17C384.822 346.306 384.914 346.422 385.037 346.494C385.16 346.565 385.306 346.589 385.445 346.559C385.584 346.528 385.707 346.447 385.79 346.331C385.872 346.214 385.908 346.071 385.89 345.93L357.99 213.3L345 220.95V274.71Z" fill="#005B96"/>
<path d="M470.37 57.93C470.351 57.8392 470.31 57.7544 470.251 57.683C470.192 57.6116 470.116 57.5557 470.03 57.5203C469.944 57.4848 469.851 57.4708 469.759 57.4794C469.667 57.4881 469.578 57.5192 469.5 57.57L341.46 138.57L306 139.71C309.72 144.6 323.52 163.71 317.31 171.87C316.183 173.137 314.795 174.144 313.241 174.822C311.687 175.501 310.005 175.834 308.31 175.8C308.43 178.582 309.576 181.221 311.525 183.21C313.475 185.198 316.091 186.395 318.87 186.57L348.87 169.5L342.54 139.5L469.5 59.1L547.5 429.45L420.39 509.94L400.47 415.23C400.428 415.094 400.336 414.978 400.213 414.906C400.09 414.835 399.944 414.811 399.805 414.842C399.666 414.872 399.543 414.953 399.46 415.069C399.378 415.186 399.342 415.329 399.36 415.47C399.84 417.87 400.47 410.34 392.79 477.93L397.35 478.14L396.12 493.71L384.84 494.07C383.847 500.157 383.455 506.326 383.67 512.49L420.03 511.41C420.03 511.41 420.03 511.41 420.57 511.14C422.73 509.88 437.61 500.31 548.43 430.14C549 429.72 552.42 446.52 470.37 57.93Z" fill="#005B96"/>
<path d="M161.55 323.73C161.55 324.03 171.03 321.15 171.03 321.15L199.44 334.35L206.52 322.53L221.52 328.83C220.77 329.61 217.68 334.62 217.68 334.62L262.26 354.72C251.58 297.78 276 277.65 276 277.65L267.72 237.81L141.27 222L161.55 323.73Z" fill="#005B96"/>
<path d="M447 39.42C446.46 28.14 443.4 25.95 440.79 38.1C440.196 41.5 439.343 44.8497 438.24 48.12C438 43.53 437.55 36.63 437.1 30.12C436.32 18.75 432.84 17.22 430.53 30.33C429.825 35.1856 428.639 39.959 426.99 44.58C425.97 38.31 424.29 28.68 422.58 22.59C419.58 12.06 416.13 12.21 415.92 24.03C415.92 25.68 415.47 41.13 415.35 45.21C414 41.85 412.17 37.23 410.46 32.49C406.92 22.86 402.03 23.1 404.46 34.83C404.73 36.12 407.1 49.11 407.82 52.83C408.24 55.2 408.48 61.11 406.5 61.83C400.5 64.02 386.1 58.5 383.97 63.33C382.59 66.48 392.76 69.33 399.48 72.03C403.38 73.59 405.48 79.95 404.7 84.33C401.7 100.23 403.77 88.29 394.56 144.33L344.79 171.9L345.3 220.98L421.05 176.46C425.011 174.137 428.374 170.92 430.869 167.065C433.364 163.21 434.923 158.825 435.42 154.26C437.31 136.8 440.31 109.26 442.95 89.64C445.342 73.0004 446.694 56.2279 447 39.42Z" fill="#B3CDE0"/>
<path d="M270.27 194.58L124.83 184.41C120.15 184.05 113.76 180.6 112.56 176.76C110.49 170.16 108.57 160.44 105.15 160.92C99.9 161.61 104.07 175.92 101.16 180.48C100.14 182.1 93.87 180.48 91.62 179.43L73.08 172.05C61.08 167.07 60.33 171.33 70.08 176.82C77.73 181.17 83.49 184.77 85.23 185.82C79.59 184.29 68.43 181.35 61.86 179.67C49.05 176.4 49.08 180.69 59.67 184.77C69.42 188.52 81.12 193.2 81.96 193.56C77.19 192.93 69.3 191.79 61.71 190.26C48.66 187.62 49.26 191.58 59.97 195.45C68.19 198.45 76.59 201.03 79.74 201.81C75.1485 201.713 70.5685 201.312 66.03 200.61C52.74 198.51 53.64 202.47 65.04 205.92C73.08 208.38 78.09 209.22 92.94 213.27C107.015 216.744 121.266 219.468 135.63 221.43L267.81 237.75L271.95 257.31C290.64 267.24 270.27 194.58 270.27 194.58Z" fill="#B3CDE0"/>
<path d="M318.72 186.57C315.99 186.302 313.445 185.066 311.547 183.085C309.648 181.104 308.522 178.509 308.37 175.77C315.51 175.56 325.86 170.82 312.81 149.07C298.68 125.55 291.15 144.06 292.47 154.2C292.47 156.06 291.54 156.54 288.54 154.59C282.27 150.54 278.49 161.13 290.1 165.51C292.29 166.35 300.99 189.12 287.85 192.51L284.58 192.96L290.58 219.96L330.27 216.51V180L318.72 186.57Z" fill="#B3CDE0"/>
<path d="M143.25 88.38C142.751 85.2374 141.552 82.2472 139.741 79.6309C137.93 77.0147 135.554 74.8395 132.788 73.2664C130.022 71.6933 126.938 70.7627 123.763 70.5435C120.589 70.3242 117.406 70.822 114.45 72C113.427 70.4199 112.038 69.1098 110.401 68.181C108.764 67.2522 106.927 66.7321 105.046 66.6648C103.165 66.5975 101.296 66.985 99.5964 67.7944C97.8971 68.6038 96.4182 69.8113 95.2851 71.3143C94.1521 72.8173 93.3984 74.5715 93.088 76.4279C92.7776 78.2844 92.9197 80.1883 93.5022 81.9782C94.0847 83.768 95.0905 85.3909 96.4341 86.709C97.7776 88.0272 99.4194 89.0018 101.22 89.55C100.897 92.5636 101.224 95.6115 102.178 98.4882C103.132 101.365 104.692 104.004 106.752 106.227C108.812 108.45 111.325 110.206 114.121 111.376C116.917 112.546 119.931 113.103 122.96 113.01C125.99 112.917 128.964 112.176 131.683 110.836C134.402 109.497 136.802 107.59 138.722 105.245C140.642 102.9 142.036 100.17 142.812 97.2401C143.588 94.3103 143.727 91.2481 143.22 88.26L143.25 88.38ZM125.58 111.6C122.558 112.092 119.464 111.886 116.534 111C113.604 110.114 110.915 108.57 108.672 106.487C106.429 104.403 104.692 101.834 103.593 98.9773C102.494 96.1201 102.062 93.0495 102.33 90C104.489 90.4305 106.726 90.2431 108.783 89.4594C110.84 88.6758 112.634 87.3276 113.96 85.5698C115.285 83.812 116.088 81.716 116.275 79.5226C116.463 77.3291 116.028 75.1272 115.02 73.17C117.647 72.0978 120.471 71.5948 123.307 71.6941C126.143 71.7935 128.925 72.4929 131.47 73.7464C134.016 74.9998 136.267 76.7786 138.074 78.9657C139.882 81.1527 141.205 83.6981 141.957 86.434C142.709 89.1699 142.872 92.0341 142.436 94.8377C141.999 97.6413 140.974 100.321 139.426 102.699C137.878 105.077 135.844 107.1 133.458 108.634C131.071 110.168 128.386 111.179 125.58 111.6Z" fill="#005B96"/>
<path d="M467.25 516.54C467.13 516.482 467.035 516.383 466.98 516.262C466.926 516.14 466.915 516.004 466.951 515.875C466.987 515.747 467.066 515.635 467.175 515.559C467.285 515.484 467.417 515.448 467.55 515.46C495.15 523.89 492.81 483.96 521.34 492.69C521.483 492.738 521.601 492.841 521.669 492.976C521.736 493.111 521.747 493.267 521.7 493.41C521.679 493.48 521.645 493.545 521.599 493.601C521.553 493.657 521.496 493.703 521.432 493.737C521.367 493.77 521.297 493.791 521.224 493.796C521.152 493.802 521.079 493.793 521.01 493.77C493.14 485.25 496.02 525.36 467.25 516.54Z" fill="#005B96"/>
<path d="M117.96 413.28C117.835 413.251 117.723 413.18 117.643 413.079C117.563 412.978 117.52 412.854 117.52 412.725C117.52 412.596 117.563 412.472 117.643 412.371C117.723 412.27 117.835 412.199 117.96 412.17L128.37 409.83C128.446 409.807 128.525 409.799 128.604 409.808C128.682 409.817 128.758 409.842 128.826 409.882C128.894 409.922 128.954 409.976 129 410.04C129.046 410.104 129.079 410.177 129.096 410.254C129.112 410.331 129.113 410.411 129.097 410.489C129.081 410.566 129.049 410.639 129.004 410.704C128.958 410.768 128.9 410.823 128.832 410.863C128.764 410.904 128.688 410.93 128.61 410.94C120 412.89 118.26 413.28 117.96 413.28Z" fill="#005B96"/>
<path d="M147 406.77C146.875 406.741 146.763 406.67 146.683 406.569C146.603 406.468 146.56 406.344 146.56 406.215C146.56 406.086 146.603 405.962 146.683 405.861C146.763 405.76 146.875 405.689 147 405.66L157.41 403.32C157.551 403.302 157.694 403.338 157.811 403.42C157.927 403.503 158.008 403.626 158.038 403.765C158.069 403.904 158.045 404.05 157.974 404.173C157.902 404.296 157.786 404.388 157.65 404.43C148.74 406.38 147.15 406.77 147 406.77Z" fill="#005B96"/>
<path d="M135 399.18L132.66 388.77C132.642 388.699 132.639 388.625 132.651 388.553C132.663 388.481 132.689 388.412 132.729 388.35C132.768 388.288 132.819 388.235 132.88 388.194C132.94 388.153 133.008 388.124 133.08 388.11C133.153 388.092 133.229 388.089 133.303 388.1C133.377 388.112 133.448 388.138 133.512 388.177C133.576 388.216 133.632 388.267 133.676 388.328C133.721 388.388 133.752 388.457 133.77 388.53L136.11 398.94C136.128 399.081 136.092 399.224 136.01 399.341C135.927 399.457 135.804 399.538 135.665 399.568C135.526 399.599 135.38 399.575 135.257 399.504C135.134 399.432 135.042 399.316 135 399.18Z" fill="#005B96"/>
<path d="M141.51 428.07L139.14 417.66C139.122 417.519 139.158 417.376 139.24 417.259C139.323 417.143 139.446 417.062 139.585 417.031C139.724 417.001 139.87 417.025 139.993 417.096C140.116 417.168 140.208 417.284 140.25 417.42L142.59 427.83C142.622 427.973 142.595 428.123 142.517 428.247C142.438 428.371 142.313 428.458 142.17 428.49C142.027 428.522 141.877 428.495 141.753 428.417C141.629 428.338 141.542 428.213 141.51 428.07Z" fill="#005B96"/>
<path d="M129.6 403.8C129.3 403.8 129.6 403.95 120.3 398.01C120.191 397.923 120.118 397.798 120.095 397.661C120.072 397.523 120.1 397.382 120.174 397.263C120.247 397.145 120.362 397.058 120.496 397.019C120.63 396.979 120.774 396.99 120.9 397.05L129.9 402.75C130.003 402.816 130.082 402.914 130.126 403.028C130.169 403.143 130.174 403.269 130.141 403.387C130.107 403.505 130.036 403.608 129.939 403.683C129.841 403.757 129.723 403.798 129.6 403.8Z" fill="#005B96"/>
<path d="M154.65 419.61C154.35 419.61 154.65 419.79 145.32 413.82C145.259 413.781 145.206 413.73 145.165 413.67C145.124 413.61 145.094 413.543 145.079 413.472C145.064 413.401 145.063 413.327 145.076 413.256C145.089 413.184 145.116 413.116 145.155 413.055C145.194 412.994 145.245 412.941 145.305 412.9C145.365 412.859 145.432 412.829 145.503 412.814C145.574 412.799 145.648 412.798 145.719 412.811C145.791 412.824 145.859 412.851 145.92 412.89L154.92 418.59C155.03 418.646 155.117 418.738 155.167 418.851C155.217 418.963 155.227 419.09 155.196 419.209C155.164 419.328 155.093 419.433 154.994 419.506C154.894 419.579 154.773 419.615 154.65 419.61Z" fill="#005B96"/>
<path d="M142.68 400.86C142.579 400.859 142.48 400.831 142.393 400.78C142.306 400.728 142.234 400.654 142.186 400.565C142.137 400.477 142.112 400.377 142.115 400.276C142.117 400.175 142.147 400.076 142.2 399.99L147.9 390.99C147.987 390.881 148.112 390.808 148.249 390.785C148.387 390.762 148.528 390.79 148.647 390.864C148.765 390.937 148.852 391.052 148.891 391.186C148.931 391.32 148.92 391.464 148.86 391.59C142.68 401.34 143.13 400.86 142.68 400.86Z" fill="#005B96"/>
<path d="M126.87 426C126.769 425.999 126.67 425.971 126.583 425.92C126.496 425.868 126.424 425.794 126.376 425.705C126.327 425.617 126.302 425.517 126.305 425.416C126.307 425.315 126.337 425.216 126.39 425.13L132.09 416.13C132.17 416.007 132.295 415.92 132.438 415.889C132.582 415.858 132.732 415.885 132.855 415.965C132.978 416.045 133.065 416.17 133.096 416.313C133.127 416.457 133.1 416.607 133.02 416.73C126.84 426.36 127.29 426 126.87 426Z" fill="#005B96"/>
<path d="M537 219.9C537 219.6 535.38 217.41 529.95 208.74C529.87 208.614 529.743 208.524 529.597 208.49C529.451 208.456 529.298 208.481 529.17 208.56L463.41 250.11L469.92 221.22C469.938 221.147 469.941 221.071 469.93 220.997C469.918 220.923 469.892 220.852 469.853 220.788C469.814 220.724 469.763 220.668 469.702 220.624C469.642 220.579 469.573 220.548 469.5 220.53L456.72 217.53C456.577 217.503 456.429 217.531 456.307 217.609C456.184 217.687 456.096 217.809 456.06 217.95L445.74 263.61C445.328 265.448 445.662 267.374 446.669 268.966C447.676 270.557 449.273 271.685 451.11 272.1C495.9 282.21 496.59 282.42 496.89 282.42C497.017 282.419 497.141 282.379 497.244 282.303C497.346 282.228 497.422 282.121 497.46 282L500.46 269.22C500.477 269.147 500.479 269.071 500.466 268.997C500.452 268.923 500.423 268.853 500.381 268.791C500.338 268.728 500.284 268.676 500.22 268.636C500.156 268.596 500.084 268.57 500.01 268.56L471 262.14L536.76 220.59C536.87 220.517 536.954 220.411 536.997 220.286C537.04 220.161 537.042 220.025 537 219.9Z" fill="#005B96"/>
<path d="M516 159.84L526.44 145.08L511.8 135C511.746 134.947 511.704 134.884 511.675 134.814C511.646 134.745 511.631 134.67 511.631 134.595C511.631 134.52 511.646 134.445 511.675 134.376C511.704 134.306 511.746 134.243 511.8 134.19L522 119.28L507.15 108.51C507.087 108.471 507.032 108.419 506.99 108.357C506.947 108.296 506.918 108.226 506.904 108.153C506.89 108.08 506.891 108.004 506.908 107.931C506.924 107.859 506.956 107.79 507 107.73L517.56 93L502.38 82.26C502.258 82.1751 502.175 82.0461 502.147 81.9004C502.119 81.7548 502.149 81.604 502.23 81.48C502.281 81.4225 502.343 81.3765 502.413 81.345C502.483 81.3135 502.558 81.2972 502.635 81.2972C502.712 81.2972 502.787 81.3135 502.857 81.345C502.927 81.3765 502.989 81.4225 503.04 81.48L518.67 92.52C518.733 92.5593 518.788 92.6113 518.83 92.6728C518.873 92.7343 518.902 92.8038 518.916 92.8771C518.93 92.9504 518.929 93.0258 518.912 93.0986C518.896 93.1714 518.864 93.24 518.82 93.3L508.38 108L523.23 118.8C523.329 118.906 523.384 119.045 523.384 119.19C523.384 119.335 523.329 119.474 523.23 119.58L513 134.25L527.73 144.45C527.794 144.492 527.85 144.547 527.892 144.611C527.935 144.675 527.964 144.747 527.978 144.823C527.992 144.899 527.991 144.976 527.974 145.052C527.957 145.127 527.925 145.198 527.88 145.26L517.11 160.5C517.022 160.647 516.88 160.754 516.714 160.796C516.548 160.838 516.372 160.813 516.225 160.725C516.078 160.637 515.971 160.495 515.929 160.329C515.887 160.163 515.912 159.987 516 159.84Z" fill="#005B96"/>
<path d="M528.42 129.9L538.86 115.14L524.13 105C524.067 104.961 524.012 104.909 523.97 104.847C523.927 104.786 523.898 104.716 523.884 104.643C523.87 104.57 523.871 104.494 523.888 104.421C523.904 104.349 523.936 104.28 523.98 104.22L534.42 89.43L519.57 78.63C519.471 78.5243 519.416 78.3849 519.416 78.24C519.416 78.0951 519.471 77.9557 519.57 77.85L529.89 63L514.68 52.29C514.08 51.84 514.68 50.91 515.34 51.36L531 62.43C531.099 62.5357 531.154 62.6751 531.154 62.82C531.154 62.9649 531.099 63.1043 531 63.21L520.68 78L535.53 88.77C535.593 88.8093 535.648 88.8613 535.69 88.9228C535.733 88.9843 535.762 89.0538 535.776 89.1271C535.79 89.2004 535.789 89.2758 535.772 89.3486C535.756 89.4214 535.724 89.49 535.68 89.55L525.24 104.34C540.93 115.2 540.24 114.57 540.24 114.9C540.24 115.23 541.11 114.09 529.38 130.56C529.292 130.687 529.158 130.775 529.006 130.803C528.854 130.831 528.697 130.798 528.57 130.71C528.443 130.622 528.355 130.488 528.327 130.336C528.299 130.184 528.332 130.027 528.42 129.9Z" fill="#005B96"/>
<path d="M330 233.58L294.66 236.31C294.585 236.314 294.512 236.332 294.444 236.365C294.376 236.397 294.316 236.442 294.266 236.498C294.215 236.554 294.177 236.619 294.152 236.689C294.127 236.76 294.116 236.835 294.12 236.91C296.07 260.91 296.49 267.27 296.67 268.95C296.67 269.64 296.67 269.52 296.91 269.58C313.56 279.12 317.67 281.58 318.78 282.06C319.38 282.39 319.38 282.3 319.89 281.76C320.88 280.65 323.61 277.35 332.79 266.58C332.886 266.489 332.958 266.375 333 266.25C333.041 266.124 333.052 265.991 333.03 265.86C333.03 264.48 332.49 258.81 330.6 234.09C330.596 234.016 330.578 233.944 330.545 233.878C330.512 233.812 330.467 233.753 330.41 233.705C330.354 233.657 330.289 233.622 330.218 233.6C330.148 233.579 330.073 233.572 330 233.58ZM319.2 280.95L297.81 268.74L295.38 237.39L329.61 234.75L332.01 265.83L319.2 280.95Z" fill="#011F4B"/>
<path d="M287.04 288.24C285.941 292.439 283.845 296.311 280.931 299.528C278.017 302.745 274.37 305.212 270.3 306.72C270.217 306.734 270.139 306.766 270.07 306.814C270.001 306.862 269.944 306.924 269.902 306.997C269.86 307.07 269.835 307.151 269.828 307.234C269.821 307.318 269.832 307.402 269.861 307.48C269.89 307.559 269.937 307.63 269.996 307.689C270.056 307.748 270.128 307.792 270.208 307.82C270.287 307.848 270.371 307.858 270.454 307.849C270.538 307.84 270.618 307.813 270.69 307.77C274.91 306.204 278.689 303.639 281.703 300.296C284.717 296.952 286.878 292.929 288 288.57C287.985 288.466 287.942 288.368 287.875 288.287C287.808 288.206 287.72 288.145 287.621 288.111C287.522 288.077 287.415 288.071 287.312 288.094C287.21 288.117 287.116 288.167 287.04 288.24Z" fill="#011F4B"/>
<path d="M447.45 39.33C447.24 34.86 446.52 29.49 444.45 29.31C441.45 29.04 440.1 38.79 438.45 44.94C438.21 40.74 437.85 35.46 437.49 30.18C437.19 25.86 436.38 20.64 434.19 20.55C431.4 20.55 430.05 28.95 429.81 30.3C429.172 34.4116 428.24 38.4721 427.02 42.45C426 36.27 424.5 27.96 422.97 22.5C421.92 18.78 420.27 14.43 418.2 14.43C415.47 14.43 415.2 21.36 415.2 24.12C415.2 25.56 414.9 37.29 414.78 42.75C413.58 39.75 412.17 36.06 410.82 32.37C408.99 27.42 406.65 24.66 404.82 25.2C402.99 25.74 402.51 29.31 403.65 35.01C403.89 36.09 406.98 53.01 406.98 53.01C407.55 56.01 407.4 60.9 406.05 61.41C400.35 63.54 385.56 57.84 383.19 63.21C381.48 67.08 392.19 69.99 399 72.69C402.63 74.13 404.61 80.25 403.89 84.36C399.81 108 407.22 63 393.87 144L318.6 186C316.108 185.839 313.76 184.772 312 183V182.82C310.377 181.031 309.331 178.793 309 176.4C310.722 176.368 312.418 175.966 313.971 175.22C315.524 174.475 316.898 173.404 318 172.08C321.27 167.49 319.71 159.69 313.38 148.86C312.106 146.651 310.662 144.544 309.06 142.56C307.44 140.34 303.84 134.85 302.16 132.27C300.96 130.44 301.92 131.97 298.05 125.46C297.454 124.48 296.517 123.754 295.419 123.423C294.32 123.092 293.138 123.178 292.1 123.666C291.062 124.153 290.24 125.008 289.793 126.064C289.347 127.121 289.306 128.305 289.68 129.39C288.904 129.283 288.113 129.374 287.381 129.655C286.649 129.936 286 130.397 285.495 130.995C284.989 131.594 284.642 132.311 284.488 133.079C284.333 133.847 284.375 134.642 284.61 135.39C283.895 135.408 283.195 135.592 282.563 135.927C281.931 136.263 281.386 136.74 280.97 137.321C280.555 137.903 280.279 138.573 280.167 139.279C280.054 139.985 280.106 140.708 280.32 141.39C279.602 141.405 278.898 141.587 278.262 141.92C277.626 142.253 277.076 142.728 276.655 143.31C276.233 143.891 275.952 144.561 275.833 145.269C275.715 145.977 275.761 146.703 275.97 147.39C275.059 147.423 274.179 147.725 273.439 148.257C272.7 148.789 272.134 149.528 271.813 150.381C271.493 151.234 271.431 152.163 271.637 153.051C271.843 153.938 272.307 154.745 272.97 155.37C273.24 155.67 272.73 154.65 284.19 165.27C290.46 171.06 293.76 175.77 294.42 178.83C295.02 184.83 293.7 190.35 287.91 191.91L270.39 193.86L124.86 183.69C120.45 183.36 114.24 180.03 113.1 176.46C111.09 170.04 109.23 160.2 105.39 160.2C99.03 160.2 103.53 175.53 100.68 180.03C100.05 181.05 94.86 180.03 91.68 178.77C91.68 178.77 74.19 171.84 73.14 171.39C69.72 169.98 63.84 167.91 62.79 170.1C62.01 171.69 64.53 174.33 69.57 177.18L81.21 183.81L61.77 179.04C58.14 178.11 51.93 176.91 51.21 179.04C50.49 181.17 57.21 184.29 59.25 185.04C65.61 187.5 72.87 190.38 77.25 192.15C73.08 191.55 67.68 190.68 61.5 189.45C55.32 188.22 51.51 188.28 51.06 189.9C50.43 192.18 56.73 194.73 59.46 195.72C63.09 197.04 69.93 199.35 74.76 200.76C72 200.58 68.94 200.28 65.76 199.8C59.22 198.75 55.74 199.05 55.38 200.67C54.6 204.09 69.06 207.57 72.6 208.44C81 210.6 87 212.19 92.7 213.75C106.814 217.254 121.104 220.008 135.51 222L267.24 238.41L275.4 277.41C272.73 279.75 252.03 299.85 261.63 353.73L218.61 334.35C220.59 331.14 221.4 330 221.61 329.46C221.82 328.92 221.79 329.07 221.61 328.86C221.43 328.65 208.41 322.86 206.61 322.02C206.523 321.957 206.418 321.922 206.31 321.922C206.202 321.922 206.097 321.957 206.01 322.02C205.62 322.47 201.6 328.98 199.08 333.54C169.83 319.95 171.15 320.49 170.82 320.52C169.11 320.85 171.42 320.52 154.29 324.87C133.816 329.254 113.957 336.136 95.16 345.36C95.0541 345.397 94.9623 345.466 94.8973 345.557C94.8324 345.649 94.7975 345.758 94.7975 345.87C94.7975 345.982 94.8324 346.091 94.8973 346.183C94.9623 346.274 95.0541 346.343 95.16 346.38C99.36 348 103.89 349.38 108.54 350.82C139.02 359.61 153.54 356.82 178.29 367.89L183.03 370.02C182.04 373.02 179.22 381.69 179.13 382.38C179.04 383.07 179.13 382.71 179.46 382.95C190.53 387.84 193.41 389.22 194.46 389.49C194.603 389.538 194.759 389.526 194.894 389.459C195.029 389.391 195.132 389.273 195.18 389.13C195.63 387.39 196.08 385.65 196.59 383.91L279.57 421.53C283.745 423.4 288.304 424.253 292.872 424.019C297.44 423.785 301.888 422.47 305.85 420.183C309.812 417.897 313.175 414.703 315.662 410.864C318.15 407.025 319.691 402.65 320.16 398.1L324.84 354L350.46 389.07L341.79 472.38C336.42 471.12 337.47 471.27 337.17 471.27C337.083 471.288 337 471.323 336.928 471.375C336.855 471.427 336.795 471.493 336.75 471.57C336.75 471.87 335.13 487.68 335.16 487.98C335.171 488.073 335.204 488.163 335.256 488.241C335.309 488.319 335.378 488.384 335.46 488.43C335.91 488.61 341.46 489.9 345.84 490.74C343.32 512.97 342.57 519.12 342.42 520.89C342.42 521.73 342.42 521.58 342.42 521.7C356.79 543 367.44 563.7 389.88 585.54C389.958 585.614 390.054 585.664 390.159 585.685C390.264 585.707 390.372 585.698 390.473 585.66C390.573 585.623 390.66 585.558 390.725 585.473C390.79 585.388 390.83 585.286 390.84 585.18C391.124 566.943 389.516 548.725 386.04 530.82C384.301 520.483 383.938 509.962 384.96 499.53L385.44 494.58C386.04 494.58 396.06 494.58 396.54 494.19C396.654 494.096 396.737 493.971 396.78 493.83C396.78 493.56 398.34 477.66 398.31 477.57C398.16 476.82 397.86 477.12 393.51 477.33L402.51 397.86C403.933 385.559 401.39 373.124 395.25 362.37L345.6 274.56V221.28L421.29 177C425.325 174.632 428.75 171.354 431.292 167.426C433.834 163.498 435.422 159.031 435.93 154.38C444 80.13 448.14 53.79 447.45 39.33ZM430.98 30.51C432.51 21.78 434.13 21.69 434.19 21.69C434.25 21.69 435.96 23.34 436.41 30.24C436.95 38.04 437.85 50.91 437.67 53.07C434.651 51.8366 431.515 50.9118 428.31 50.31C428.31 49.47 427.89 47.31 427.44 44.67C429.208 40.1167 430.397 35.3595 430.98 30.51ZM416.37 24C416.37 17.4 417.63 15.51 418.2 15.45C418.77 15.39 420.27 16.8 421.95 22.68C424.29 31.08 426.6 46.38 427.14 50.01C424.021 49.5496 420.858 49.469 417.72 49.77C417.45 49.08 416.79 47.46 415.89 45.3C415.95 43.83 416.34 25.95 416.37 24ZM290.37 165H290.19C279.48 160.95 282.54 151.44 288.15 155.07C290.07 156.3 291.15 156.66 292.08 156.24C292.379 156.016 292.616 155.72 292.769 155.378C292.921 155.037 292.983 154.662 292.95 154.29C292.965 154.06 292.965 153.83 292.95 153.6C292.47 148.77 294.06 141.18 298.08 138.81C302.1 136.44 305.4 140.55 305.73 140.73C308.321 143.263 310.525 146.164 312.27 149.34C318.27 159.75 319.95 167.13 316.98 171.33C312.96 177 301.74 174.9 301.62 174.87C301.5 174.84 300.51 175.29 301.62 176.19C302.73 177.09 305.1 178.89 311.19 183.63C313.187 185.698 315.882 186.949 318.75 187.14C322.572 185.354 326.288 183.351 329.88 181.14V216L291.18 219.39L285.18 193.47L287.94 193.17C301.47 189.57 293.34 167.01 290.46 165H290.37ZM59.79 184.17C53.79 181.86 52.32 179.94 52.44 179.49C52.56 179.04 54.42 178.29 61.62 180.15L87.57 186.48C86.9431 188.75 86.5906 191.086 86.52 193.44L82.05 192.93C81 192.51 69.39 187.86 59.79 184.17ZM52.41 190.38C52.41 190.08 54.27 189.27 61.41 190.71C69.6159 192.43 77.9076 193.712 86.25 194.55C86.3551 196.725 86.6665 198.884 87.18 201C84.8029 200.833 82.417 200.833 80.04 201C73.2582 199.357 66.5687 197.354 60 195C54 192.6 52.29 190.8 52.41 190.38ZM65.1 205.38C58.47 203.34 56.64 201.57 56.76 201.15C56.88 200.73 58.56 200.01 65.76 201.15C72.8955 202.234 80.121 202.605 87.33 202.26C87.72 203.91 88.17 205.56 88.74 207.24C88.7934 207.376 88.8969 207.486 89.0291 207.548C89.1613 207.61 89.3123 207.618 89.4508 207.572C89.5892 207.526 89.7047 207.429 89.7734 207.3C89.8421 207.171 89.8588 207.021 89.82 206.88C86.7539 199.174 86.7539 190.586 89.82 182.88C89.8633 182.808 89.8902 182.728 89.8989 182.644C89.9075 182.561 89.8977 182.477 89.87 182.398C89.8424 182.318 89.7976 182.246 89.7389 182.186C89.6802 182.127 89.609 182.08 89.5304 182.051C89.4518 182.022 89.3677 182.011 89.2842 182.018C89.2006 182.025 89.1197 182.05 89.047 182.092C88.9744 182.134 88.9119 182.191 88.8641 182.26C88.8162 182.329 88.784 182.407 88.77 182.49C88.38 183.51 88.05 184.47 87.78 185.49L85.23 184.89L70.23 176.31C64.92 173.31 63.69 171.21 63.93 170.7C64.17 170.19 66.69 170.01 72.93 172.56L91.47 179.94C91.47 179.94 100.17 183.21 101.7 180.75C104.7 176.16 100.8 162.06 105.3 161.46C108.3 161.04 110.79 172.74 112.08 176.91C113.37 181.08 119.97 184.56 124.83 184.95L269.79 195C274.05 210.96 283.35 252 276.57 257.28C275.55 258.06 274.14 257.94 272.31 256.89L266.58 229.53C266.533 229.398 266.441 229.287 266.32 229.216C266.2 229.145 266.058 229.118 265.92 229.14L246.21 234.45L135.63 220.8C121.288 218.833 107.059 216.12 93 212.67C78.27 208.62 73.29 207.78 65.1 205.32V205.38ZM194.31 388.38L180.6 382.38C186.434 361.572 195.245 341.717 206.76 323.43L220.47 329.43C208.625 347.507 199.791 367.385 194.31 388.29V388.38ZM171 321.75L180.87 326.34C162.36 331.77 137.7 336.57 109.68 350.01C105.45 348.78 101.19 347.43 96.96 345.87C126.81 330.81 153 327.24 171 321.75ZM397.08 478.08L395.64 493.08C375.668 494.084 355.656 492.164 336.24 487.38L337.68 472.38C357.043 477.472 377.102 479.397 397.08 478.08ZM389.7 583.68C366 560.16 354.39 536.58 343.41 521.07L344.64 510.27C355.65 526.11 368.01 547.98 389.64 570.27C389.79 574.74 389.82 579.18 389.7 583.68ZM356.49 296.37C348 293.37 343.5 283.98 343.44 283.89C343.364 283.784 343.253 283.708 343.127 283.674C343.001 283.64 342.867 283.65 342.748 283.702C342.629 283.755 342.531 283.847 342.471 283.963C342.411 284.079 342.393 284.212 342.42 284.34C342.63 284.79 347.58 295.29 357.42 297.78L394.35 362.79C400.386 373.319 402.888 385.505 401.49 397.56L392.49 477.24C375.881 477.859 359.264 476.254 343.08 472.47L351.81 388.83C351.81 388.5 352.5 389.52 339.81 372.21L328.17 323.1C328.141 322.975 328.07 322.863 327.969 322.783C327.868 322.703 327.744 322.66 327.615 322.66C327.486 322.66 327.362 322.703 327.261 322.783C327.16 322.863 327.089 322.975 327.06 323.1L319.23 398.1C318.777 402.471 317.295 406.673 314.905 410.361C312.515 414.049 309.284 417.118 305.479 419.317C301.674 421.515 297.401 422.78 293.012 423.009C288.624 423.237 284.243 422.422 280.23 420.63L197.13 382.92C202.022 366.22 209.082 350.234 218.13 335.37L246.72 348.24C267.03 374.61 266.25 373.74 266.58 373.95C266.679 374.001 266.79 374.022 266.9 374.01C267.01 373.999 267.115 373.955 267.201 373.885C267.287 373.815 267.351 373.721 267.384 373.616C267.418 373.51 267.42 373.397 267.39 373.29C247.68 301.29 276.21 278.37 276.39 278.13C276.57 277.89 276.81 278.52 272.64 258.45C288.15 265.5 275.31 211.47 270.96 195.09L284.16 193.62L290.16 220.17C290.188 220.292 290.257 220.4 290.355 220.476C290.453 220.553 290.575 220.593 290.7 220.59L330.57 217.17C330.87 217.17 330.93 216.9 330.93 216.6V180.39L344.19 172.83V274.83C344.22 275.01 344.49 275.25 356.49 296.37ZM445.53 59.01C443.73 84.42 443.22 76.59 434.79 154.17C434.297 158.644 432.769 162.941 430.327 166.721C427.885 170.502 424.595 173.661 420.72 175.95L345.72 219.99L345.27 172.2C384.54 150.48 392.37 146.22 394.08 145.2C394.65 144.84 394.86 144.66 394.89 144.54L405.03 84.54C405.87 79.95 403.62 73.29 399.45 71.64C395.28 69.99 383.1 66.24 384.27 63.66C386.13 59.43 400.62 64.65 406.47 62.46C409.11 61.47 408.45 54.48 408.15 52.8C408.15 52.8 405.15 35.76 404.79 34.8C403.62 28.95 404.37 26.52 405.15 26.28C405.93 26.04 407.97 27.9 409.74 32.76C412.53 40.35 415.56 47.76 416.49 50.01C414.99 50.19 413.49 50.43 411.72 50.76C411.639 50.7643 411.559 50.7858 411.487 50.8233C411.415 50.8607 411.352 50.9132 411.302 50.9772C411.251 51.0411 411.215 51.1151 411.196 51.1941C411.177 51.2731 411.175 51.3553 411.19 51.4352C411.205 51.5151 411.237 51.5908 411.284 51.6573C411.331 51.7238 411.391 51.7795 411.461 51.8207C411.531 51.8619 411.609 51.8876 411.69 51.8961C411.771 51.9046 411.853 51.8957 411.93 51.87C420.811 49.8558 430.107 50.815 438.39 54.6C438.524 54.6348 438.667 54.6195 438.79 54.5569C438.914 54.4944 439.011 54.3888 439.062 54.26C439.114 54.1312 439.117 53.988 439.07 53.8573C439.024 53.7266 438.931 53.6174 438.81 53.55C438.914 51.8316 438.914 50.1084 438.81 48.39C439.857 45.0523 440.708 41.6566 441.36 38.22C443.01 30.6 444.36 30.51 444.36 30.51C444.36 30.51 446.04 32.25 446.37 39.51C446.55 44.43 445.95 52.86 445.53 59.01Z" fill="#011F4B"/>
<path d="M415.62 57.63C415.546 57.5958 415.466 57.5778 415.384 57.5772C415.303 57.5767 415.222 57.5936 415.148 57.6268C415.074 57.6601 415.007 57.7088 414.953 57.7699C414.899 57.8309 414.859 57.9028 414.835 57.9807C414.812 58.0585 414.805 58.1406 414.815 58.2214C414.826 58.3021 414.854 58.3797 414.897 58.4488C414.94 58.5179 414.997 58.577 415.065 58.622C415.133 58.6671 415.21 58.6971 415.29 58.71C425.82 62.01 430.98 68.04 430.59 76.71C430.59 76.8612 430.65 77.0062 430.757 77.1131C430.864 77.22 431.009 77.28 431.16 77.28C431.311 77.28 431.456 77.22 431.563 77.1131C431.67 77.0062 431.73 76.8612 431.73 76.71C432 67.5 426.72 61.11 415.62 57.63Z" fill="#011F4B"/>
<path d="M113.79 205.32C104.79 203.55 99 197.49 96.66 187.32C96.6178 187.184 96.5262 187.068 96.4031 186.996C96.28 186.925 96.1344 186.901 95.9951 186.932C95.8557 186.962 95.7327 187.043 95.6503 187.159C95.5679 187.276 95.5322 187.419 95.55 187.56C98.01 198.21 104.04 204.54 113.55 206.4C113.677 206.397 113.8 206.351 113.898 206.27C113.996 206.189 114.065 206.078 114.092 205.954C114.12 205.83 114.105 205.7 114.05 205.585C113.996 205.47 113.904 205.377 113.79 205.32Z" fill="#011F4B"/>
</svg>
